<svg width="64" height="64" viewBox="0 0 64 64" fill="none" xmlns="http://www.w3.org/2000/svg" role="img" aria-label="TurboFiles logo">
  <defs>
    <linearGradient id="tfDoc" x1="22" y1="8" x2="44" y2="34" gradientUnits="userSpaceOnUse">
      <stop stop-color="#5360ec"/>
      <stop offset="1" stop-color="#4049d8"/>
    </linearGradient>
    <linearGradient id="tfPocket" x1="32" y1="22" x2="32" y2="47" gradientUnits="userSpaceOnUse">
      <stop stop-color="#5b67ea"/>
      <stop offset="1" stop-color="#e9ebfb"/>
    </linearGradient>
  </defs>
  <!-- document (behind) with a folded top-right corner -->
  <path d="M23 8H37L45 16V31a3 3 0 0 1-3 3H23a3 3 0 0 1-3-3V11a3 3 0 0 1 3-3Z" fill="url(#tfDoc)"/>
  <path d="M37 8L45 16H37Z" fill="#c3c8f6"/>
  <!-- folder pocket (front) with the indigo → lavender gradient -->
  <path d="M15 23H49a3 3 0 0 1 3 3v14a5 5 0 0 1-5 5H17a5 5 0 0 1-5-5V26a3 3 0 0 1 3-3Z" fill="url(#tfPocket)"/>
</svg>
